<?xml version="1.0" encoding="UTF-8"?>
<!DOCTYPE svg PUBLIC "-//W3C//DTD SVG 1.1//EN" "http://www.w3.org/Graphics/SVG/1.1/DTD/svg11.dtd">
<!-- Creator: CorelDRAW 2021 (64-Bit) -->
<svg xmlns="http://www.w3.org/2000/svg" xml:space="preserve" width="512px" height="512px" version="1.1" shape-rendering="geometricPrecision" text-rendering="geometricPrecision" image-rendering="optimizeQuality" fill-rule="evenodd" clip-rule="evenodd"
viewBox="0 0 512 512"
 xmlns:xlink="http://www.w3.org/1999/xlink"
 xmlns:xodm="http://www.corel.com/coreldraw/odm/2003">
 <g id="Layer_x0020_1">
  <metadata id="CorelCorpID_0Corel-Layer"/>
  <path fill="black" fill-rule="nonzero" d="M256 0c70.68,0 134.7,28.66 181.02,74.98 46.32,46.32 74.98,110.33 74.98,181.02 0,70.69 -28.66,134.7 -74.98,181.02 -46.32,46.32 -110.33,74.98 -181.02,74.98 -70.69,0 -134.7,-28.66 -181.02,-74.98 -46.32,-46.32 -74.98,-110.33 -74.98,-181.02 0,-70.69 28.66,-134.7 74.98,-181.02 46.32,-46.32 110.33,-74.98 181.02,-74.98zm-109.04 227.91l109.04 109.03 109.04 -109.03 -40.51 -40.52 -68.52 68.51 -68.52 -68.52 -40.53 40.53zm264.03 -126.9c-39.66,-39.66 -94.47,-64.2 -154.99,-64.2 -60.53,0 -115.33,24.54 -154.99,64.2 -39.66,39.66 -64.2,94.46 -64.2,154.99 0,60.53 24.54,115.33 64.2,154.99 39.66,39.66 94.46,64.2 154.99,64.2 60.53,0 115.33,-24.54 154.99,-64.2 39.66,-39.66 64.2,-94.46 64.2,-154.99 0,-60.53 -24.54,-115.33 -64.2,-154.99z"/>
 </g>
</svg>
