<svg width="121.30999999999999" height="122.876" xmlns="http://www.w3.org/2000/svg" xml:space="preserve" enable-background="new 0 0 121.31 122.876" version="1.1">

 <g>
  <title>Layer 1</title>
  <g fill="white" id="svg_1">
   <path id="svg_2" d="m90.914,5.296c6.927,-7.034 18.188,-7.065 25.154,-0.068c6.961,6.995 6.991,18.369 0.068,25.397l-30.393,30.827l30.425,30.855c6.866,6.978 6.773,18.28 -0.208,25.247c-6.983,6.964 -18.21,6.946 -25.074,-0.031l-30.217,-30.642l-30.274,30.699c-6.927,7.034 -18.188,7.065 -25.154,0.068c-6.961,-6.995 -6.992,-18.369 -0.068,-25.397l30.393,-30.827l-30.424,-30.856c-6.867,-6.978 -6.773,-18.28 0.208,-25.247c6.983,-6.963 18.21,-6.946 25.074,0.031l30.217,30.643l30.273,-30.699l0,0z" clip-rule="evenodd" fill-rule="evenodd"/>
  </g>
 </g>
</svg>