<svg id="Layer_1" data-name="Layer 1" xmlns="http://www.w3.org/2000/svg" viewBox="0 0 122.88 120.79"><title>delete-all</title><path d="M31.4,21.63H92.08V7.68a.54.54,0,0,0,0-.22.64.64,0,0,0-.13-.19l0,0a.64.64,0,0,0-.19-.13.59.59,0,0,0-.23,0H7.68a.51.51,0,0,0-.22,0,.85.85,0,0,0-.21.14l0,0a.78.78,0,0,0-.11.18.54.54,0,0,0,0,.22v83.8a.54.54,0,0,0,0,.22v0a.94.94,0,0,0,.12.18.74.74,0,0,0,.21.13h0a.64.64,0,0,0,.2,0H23.73V29.31A7.66,7.66,0,0,1,26,23.88l0,0a7.6,7.6,0,0,1,2.46-1.63,7.68,7.68,0,0,1,2.92-.58ZM84.07,53.07a5.14,5.14,0,1,1,7.27,7.27l-10.8,10.8,10.8,10.79a5.14,5.14,0,0,1-7.27,7.28l-10.8-10.8L62.48,89.21a5.14,5.14,0,0,1-7.27-7.28L66,71.14,55.21,60.34a5.14,5.14,0,1,1,7.27-7.27l10.79,10.8,10.8-10.8ZM99.15,21.63h16a7.77,7.77,0,0,1,2.93.58,7.89,7.89,0,0,1,2.5,1.67l0,0a7.68,7.68,0,0,1,2.22,5.39v83.8a7.69,7.69,0,0,1-4.75,7.09,7.59,7.59,0,0,1-2.93.59H31.4a7.5,7.5,0,0,1-2.92-.59A7.7,7.7,0,0,1,24.31,116a7.5,7.5,0,0,1-.58-2.92v-14h-16a7.59,7.59,0,0,1-2.93-.59A7.66,7.66,0,0,1,0,91.48V7.68A7.77,7.77,0,0,1,.58,4.75a7.89,7.89,0,0,1,1.67-2.5A7.86,7.86,0,0,1,4.75.59,7.59,7.59,0,0,1,7.68,0H91.47A7.69,7.69,0,0,1,94.4.58a8.06,8.06,0,0,1,2.5,1.67,7.69,7.69,0,0,1,2.25,5.43v14Zm16,7.07H31.4a.5.5,0,0,0-.21.05.6.6,0,0,0-.21.14h0a.86.86,0,0,0-.13.2.51.51,0,0,0,0,.22v83.8a.54.54,0,0,0,0,.22.66.66,0,0,0,.14.2l0,0a.71.71,0,0,0,.18.12.85.85,0,0,0,.22,0h83.8a.78.78,0,0,0,.22,0h0a.75.75,0,0,0,.18-.13.8.8,0,0,0,.13-.19v0a.64.64,0,0,0,0-.2V29.31a.54.54,0,0,0,0-.22v0a.66.66,0,0,0-.12-.17.85.85,0,0,0-.21-.14.54.54,0,0,0-.22-.05Z"/></svg>