<svg viewBox="0 0 122.88 113.13" xmlns="http://www.w3.org/2000/svg"><path d="m86.64 12a6 6 0 1 1 0-12h27.16a6 6 0 0 1 6 6v27.66a6 6 0 1 1 -12 0v-13.21l-23.68 23.78a6 6 0 0 1 -8.47-8.42l23.76-23.81zm-74.64 24.24a6 6 0 1 1 -12 0v-27.16a6 6 0 0 1 6-6h27.66a6 6 0 1 1 0 12h-13.21l23.77 23.7a6 6 0 1 1 -8.41 8.47l-23.81-23.78zm24.27 64.92a6 6 0 0 1 0 12h-27.19a6 6 0 0 1 -6-6v-27.69a6 6 0 1 1 12 0v13.21l23.7-23.77a6 6 0 0 1 8.47 8.41l-23.78 23.84zm74.67-24.27a6 6 0 0 1 12 0v27.16a6 6 0 0 1 -6 6h-27.72a6 6 0 1 1 0-12h13.21l-23.78-23.68a6 6 0 0 1 8.42-8.47l23.84 23.76v-12.77z"/></svg>